<svg width="125" height="47" viewBox="0 0 125 47" fill="none" xmlns="http://www.w3.org/2000/svg">
<path d="M114.802 45.1682V14.1591L123.923 16.6578V45.1682H114.802ZM122.023 7.62413C121.981 8.13668 121.221 8.79872 119.743 9.61025C118.265 10.3791 116.998 10.6353 115.942 10.3791C115.393 10.2509 114.95 9.9733 114.612 9.54618C114.485 9.41804 114.401 9.33262 114.359 9.28991C113.683 8.26481 113.345 7.13294 113.345 5.89428C113.345 4.27122 113.915 2.88307 115.055 1.72984C116.195 0.576615 117.568 0 119.173 0C120.777 0 122.15 0.576615 123.29 1.72984C124.43 2.88307 125 4.29258 125 5.95835C125 7.58142 124.43 8.96956 123.29 10.1228C122.15 11.276 120.777 11.8526 119.173 11.8526C118.624 11.8526 118.096 11.7672 117.589 11.5964C118.434 11.6391 119.194 11.4682 119.869 11.0838C120.587 10.6567 121.136 10.1441 121.516 9.54618C121.938 8.90549 122.107 8.26481 122.023 7.62413Z" fill="#2B438D"/>
<path d="M114.056 14.4794L103.351 25.7555L114.056 45.04L105.061 45.1682L97.4601 31.2653L97.0167 31.7779V45.1682H87.7687V0L97.0167 2.17832V24.346L106.771 14.4794H114.056Z" fill="#2B438D"/>
<path d="M73.3057 25.3073C76.0928 26.5459 78.4576 27.9127 80.4001 29.4076C82.3426 30.8599 83.7572 32.3121 84.644 33.7643C85.5308 35.1738 85.9953 36.5619 86.0375 37.9287C86.0798 39.2955 85.5941 40.5555 84.5807 41.7088C83.5672 42.8193 82.0892 43.7376 80.1467 44.4637C78.2042 45.1898 76.0083 45.5742 73.5591 45.6169C71.1099 45.7023 68.8084 45.4888 66.6548 44.9762C64.5011 44.421 62.6853 43.4386 61.2073 42.0291C59.7294 40.6196 58.9904 38.9325 58.9904 36.9677C58.9904 36.2416 59.0537 35.5796 59.1804 34.9816C59.3493 34.3836 59.5393 33.9138 59.7505 33.5721C60.0038 33.1877 60.2572 32.846 60.5106 32.547C60.8062 32.248 61.0807 32.0131 61.334 31.8422C61.6296 31.6714 61.883 31.5433 62.0941 31.4578C62.3475 31.3724 62.5375 31.3083 62.6642 31.2656L62.8542 31.2016L72.2289 35.6863C72.1867 35.6863 72.1022 35.7077 71.9755 35.7504C71.8911 35.7504 71.7222 35.7718 71.4688 35.8145C71.2154 35.8572 70.9621 35.9213 70.7087 36.0067C70.4975 36.0921 70.2442 36.2202 69.9486 36.3911C69.653 36.5192 69.3996 36.6901 69.1885 36.9036C68.9773 37.0745 68.7873 37.3094 68.6184 37.6084C68.4917 37.8647 68.4284 38.1636 68.4284 38.5053C68.3861 39.9576 69.0407 41.0894 70.392 41.901C71.7433 42.6698 73.0946 42.7125 74.4459 42.0291C75.8394 41.3457 76.5573 39.9148 76.5995 37.7365C76.5995 36.8396 76.0506 35.9853 74.9526 35.1738C73.8969 34.3623 72.6301 33.6789 71.1521 33.1236C69.7163 32.5256 68.0483 31.7568 66.148 30.8171C64.29 29.8348 62.7909 28.8097 61.6507 27.7419C60.595 26.7595 59.856 25.6703 59.4338 24.4744C59.0115 23.2357 58.9904 22.0184 59.3704 20.8225C59.7505 19.5838 60.4472 18.4733 61.4607 17.4909C62.4742 16.4658 63.9733 15.633 65.958 14.9923C67.985 14.3516 70.3497 14.0312 73.0524 14.0312C78.4998 14.0312 82.3003 15.3126 84.454 17.8753C86.6076 20.3954 86.5443 23.8551 84.2639 28.2544L73.8758 23.5134C74.467 23.1717 75.0371 22.7018 75.586 22.1039C76.135 21.4632 76.5573 20.8225 76.8529 20.1818C77.1485 19.4984 77.1063 18.9004 76.7262 18.3879C76.3884 17.8753 75.6494 17.555 74.5092 17.4269C73.538 17.2987 72.5878 17.3628 71.6588 17.6191C70.7298 17.8753 69.9908 18.2811 69.4418 18.8364C68.9351 19.3916 68.6395 20.011 68.5551 20.6944C68.4706 21.335 68.8295 22.0825 69.6319 22.9367C70.4342 23.791 71.6588 24.5812 73.3057 25.3073Z" fill="#2B438D"/>
<path d="M19.8261 45.1682C14.5476 45.1682 11.9084 45.1682 11.9084 45.1682V43.5024V45.1682C9.75471 45.2963 8.02336 44.9759 6.71428 44.2071C5.40521 43.3956 4.41285 42.0502 3.7372 40.1708C3.10377 38.2488 2.78706 35.686 2.78706 32.4826V18.1954H1.07682L0 14.4794H2.78706V0L11.9717 2.69087V14.4794H17.4825V18.1954H11.9717V25.1788C11.9717 28.6385 11.9717 32.3118 11.9717 36.1986C12.0562 38.5478 12.9429 40.6407 14.6321 42.4773C16.3212 44.2712 18.0526 45.1682 19.8261 45.1682Z" fill="#2B438D"/>
<ellipse cx="30.0879" cy="20.6621" rx="2.69205" ry="5.28563" fill="#C090F0"/>
<path d="M51.782 22.1035C51.782 34.134 44.9403 43.8867 36.5007 43.8867C28.061 43.8867 21.2194 34.134 21.2194 22.1035" stroke="#C090F0" stroke-width="5.60598" stroke-linecap="square"/>
<path d="M37.3711 21.7831C38.4796 21.7831 41.0092 21.875 43.217 23.6788C43.8637 21.3827 45.4044 16.2713 49.9604 15.7767" stroke="#C090F0" stroke-width="2.08222"/>
<path d="M51.7044 23.2246C52.1886 23.8062 48.9294 38.5322 54.2133 42.7575C56.9396 44.9377 59.8582 42.7575 59.8582 42.7575" stroke="#C090F0" stroke-width="5.60598"/>
</svg>
